<svg width="18" height="18" viewBox="0 0 18 18" fill="none" xmlns="http://www.w3.org/2000/svg">
<path fill-rule="evenodd" clip-rule="evenodd" d="M7.23718 2.53128C7.31177 2.40199 7.33195 2.24836 7.29327 2.10419C7.25459 1.96002 7.16022 1.83712 7.03093 1.76253C6.90164 1.68794 6.74801 1.66776 6.60384 1.70644C6.45967 1.74512 6.33677 1.83949 6.26218 1.96878L4.76218 4.56678C4.74029 4.60488 4.72292 4.6454 4.71043 4.68753H4.49968C4.0741 4.6876 3.65895 4.81931 3.31118 5.06462C2.9634 5.30993 2.70003 5.65681 2.55717 6.0577C2.41431 6.45859 2.39897 6.89386 2.51324 7.30381C2.62751 7.71377 2.8658 8.07834 3.19543 8.34753L3.69568 11.7863L4.03093 13.356C4.12883 13.8152 4.36568 14.2331 4.70931 14.553C5.05294 14.8728 5.4867 15.0792 5.95168 15.144C7.97443 15.4253 10.0257 15.4253 12.0477 15.144C12.5127 15.0792 12.9464 14.8728 13.2901 14.553C13.6337 14.2331 13.8705 13.8152 13.9684 13.356L14.3037 11.7863L14.8039 8.34828C15.1339 8.07917 15.3724 7.71454 15.4869 7.30445C15.6013 6.89436 15.586 6.45889 15.4432 6.05783C15.3003 5.65676 15.0367 5.30974 14.6888 5.06439C14.3408 4.81905 13.9254 4.68741 13.4997 4.68753H13.2889C13.2762 4.64512 13.2586 4.60434 13.2364 4.56603L11.7364 1.96803C11.7009 1.90138 11.6524 1.84256 11.5937 1.79508C11.535 1.74759 11.4673 1.71241 11.3947 1.69164C11.3221 1.67086 11.2461 1.66491 11.1712 1.67414C11.0962 1.68338 11.0239 1.7076 10.9585 1.74538C10.8931 1.78316 10.836 1.83371 10.7906 1.89402C10.7452 1.95434 10.7124 2.02318 10.6941 2.09645C10.6759 2.16972 10.6726 2.24591 10.6844 2.32049C10.6962 2.39507 10.7229 2.4665 10.7629 2.53053L12.0079 4.68678H5.99218L7.23718 2.53128ZM13.6002 8.81028C13.5667 8.81183 13.5332 8.81258 13.4997 8.81253H4.49968C4.46593 8.81253 4.43218 8.81178 4.39993 8.81028L4.80343 11.5875L5.13118 13.1213C5.18093 13.3545 5.30126 13.5668 5.47583 13.7293C5.65039 13.8918 5.87073 13.9966 6.10693 14.0295C8.02618 14.2965 9.97318 14.2965 11.8924 14.0295C12.1285 13.9966 12.3488 13.8919 12.5234 13.7296C12.6979 13.5672 12.8183 13.3551 12.8682 13.122L13.1959 11.5875L13.6002 8.81028ZM3.56218 6.75003C3.56218 6.23253 3.98218 5.81253 4.49968 5.81253H13.4997C13.7483 5.81253 13.9868 5.9113 14.1626 6.08712C14.3384 6.26293 14.4372 6.50139 14.4372 6.75003C14.4372 6.99867 14.3384 7.23713 14.1626 7.41294C13.9868 7.58876 13.7483 7.68753 13.4997 7.68753H4.49968C3.98218 7.68753 3.56218 7.26753 3.56218 6.75003Z" fill="white"/>
<path d="M9 11.4167V9.75V12.75" stroke="white" stroke-linecap="round" stroke-linejoin="round"/>
<path d="M6.75 11.25H11.25" stroke="white" stroke-linecap="round" stroke-linejoin="round"/>
</svg>
