<svg width="22" height="22" viewBox="0 0 22 22" fill="none" xmlns="http://www.w3.org/2000/svg">
<path fill-rule="evenodd" clip-rule="evenodd" d="M8.84577 3.09379C8.93694 2.93576 8.9616 2.74799 8.91432 2.57179C8.86705 2.39558 8.75171 2.24537 8.59369 2.1542C8.43566 2.06304 8.24789 2.03838 8.07169 2.08565C7.89548 2.13293 7.74527 2.24826 7.6541 2.40629L5.82077 5.58162C5.79401 5.62818 5.77278 5.67771 5.75752 5.7292H5.49994C4.97978 5.72929 4.47238 5.89027 4.04732 6.19009C3.62226 6.48991 3.30036 6.91388 3.12576 7.40385C2.95115 7.89383 2.9324 8.42583 3.07206 8.92688C3.21172 9.42794 3.50297 9.87353 3.90585 10.2025L4.51727 14.4055L4.92702 16.324C5.04667 16.8852 5.33615 17.396 5.75615 17.787C6.17614 18.1779 6.70629 18.4301 7.2746 18.5094C9.74685 18.8531 12.2539 18.8531 14.7253 18.5094C15.2936 18.4301 15.8237 18.1779 16.2437 17.787C16.6637 17.396 16.9532 16.8852 17.0729 16.324L17.4826 14.4055L18.094 10.2035C18.4973 9.87454 18.7888 9.42889 18.9287 8.92766C19.0686 8.42644 19.0499 7.8942 18.8753 7.40401C18.7006 6.91381 18.3786 6.48968 17.9533 6.18981C17.528 5.88995 17.0203 5.72905 16.4999 5.7292H16.2424C16.2269 5.67736 16.2053 5.62752 16.1782 5.5807L14.3449 2.40537C14.3015 2.32391 14.2421 2.25202 14.1704 2.19399C14.0986 2.13595 14.0159 2.09295 13.9272 2.06756C13.8385 2.04216 13.7456 2.03489 13.654 2.04618C13.5624 2.05746 13.474 2.08707 13.3941 2.13324C13.3142 2.17941 13.2444 2.2412 13.1889 2.31492C13.1333 2.38864 13.0932 2.47278 13.0709 2.56233C13.0486 2.65188 13.0446 2.74501 13.059 2.83615C13.0735 2.9273 13.1061 3.01461 13.155 3.09287L14.6767 5.72829H7.3241L8.84577 3.09379ZM16.6228 10.7681C16.5819 10.77 16.5409 10.7709 16.4999 10.7709H5.49994C5.45869 10.7709 5.41744 10.77 5.37802 10.7681L5.87119 14.1625L6.27177 16.0371C6.33258 16.3222 6.47965 16.5816 6.693 16.7802C6.90636 16.9788 7.17566 17.107 7.46435 17.1472C9.8101 17.4735 12.1898 17.4735 14.5355 17.1472C14.8241 17.107 15.0933 16.979 15.3066 16.7806C15.52 16.5822 15.6671 16.3229 15.7281 16.038L16.1287 14.1625L16.6228 10.7681ZM4.3541 8.25004C4.3541 7.61754 4.86744 7.1042 5.49994 7.1042H16.4999C16.8038 7.1042 17.0953 7.22493 17.3102 7.43981C17.525 7.6547 17.6458 7.94614 17.6458 8.25004C17.6458 8.55393 17.525 8.84538 17.3102 9.06026C17.0953 9.27515 16.8038 9.39587 16.4999 9.39587H5.49994C4.86744 9.39587 4.3541 8.88254 4.3541 8.25004Z" fill="#2AA842"/>
<path d="M11 13.9538V11.9167V15.5834" stroke="#2AA842" stroke-linecap="round" stroke-linejoin="round"/>
<path d="M8.25 13.75H13.75" stroke="#2AA842" stroke-linecap="round" stroke-linejoin="round"/>
</svg>
