<svg width="15" height="15" viewBox="0 0 15 15" fill="none" xmlns="http://www.w3.org/2000/svg">
<path d="M8.15 1.9345H10.1C10.4448 1.9345 10.7754 2.07147 11.0192 2.31526C11.263 2.55906 11.4 2.88972 11.4 3.2345V12.3345M1 12.3345H2.95M2.95 12.3345L7.3427 13.4324C7.4385 13.4562 7.53848 13.458 7.63506 13.4375C7.73164 13.417 7.82227 13.3747 7.90009 13.314C7.9779 13.2532 8.04085 13.1755 8.08415 13.0867C8.12745 12.998 8.14997 12.9006 8.15 12.8019V2.2998C8.14987 2.10232 8.10475 1.90681 8.01807 1.72937C7.93139 1.55193 7.80541 1.39657 7.64972 1.27509C7.49403 1.1536 7.3127 1.06918 7.11951 1.02824C6.92632 0.987302 6.72634 0.990914 6.53475 1.0388L3.93475 1.6888C3.65351 1.7591 3.40383 1.92139 3.22541 2.14987C3.04698 2.37835 2.95004 2.65991 2.95 2.9498V12.3345ZM8.15 12.3345H14M6.2 7.1345V7.141" stroke="#2AA842" stroke-width="1.5" stroke-linecap="round" stroke-linejoin="round"/>
</svg>
