<svg width="24.000000" height="24.000000" viewBox="0 0 24 24" fill="none" xmlns="http://www.w3.org/2000/svg" xmlns:xlink="http://www.w3.org/1999/xlink">
	<desc>
			Created with Pixso.
	</desc>
	<defs>
		<clipPath id="clip237_693">
			<rect id="ic:round-plus" rx="-0.500000" width="23.000000" height="23.000000" transform="translate(0.500000 0.500000)" fill="white" fill-opacity="0"/>
		</clipPath>
	</defs>
	<rect id="ic:round-plus" rx="-0.500000" width="23.000000" height="23.000000" transform="translate(0.500000 0.500000)" fill="#FFFFFF" fill-opacity="0"/>
	<g clip-path="url(#clip237_693)">
		<path id="Vector" d="M18 12.99L13 12.99L13 17.99C13 18.26 12.89 18.51 12.7 18.7C12.51 18.89 12.26 18.99 12 18.99C11.73 18.99 11.48 18.89 11.29 18.7C11.1 18.51 11 18.26 11 17.99L11 12.99L6 12.99C5.73 12.99 5.48 12.89 5.29 12.7C5.1 12.51 5 12.26 5 11.99C5 11.73 5.1 11.47 5.29 11.29C5.48 11.1 5.73 10.99 6 10.99L11 10.99L11 5.99C11 5.73 11.1 5.47 11.29 5.29C11.48 5.1 11.73 4.99 12 4.99C12.26 4.99 12.51 5.1 12.7 5.29C12.89 5.47 13 5.73 13 5.99L13 10.99L18 10.99C18.26 10.99 18.51 11.1 18.7 11.29C18.89 11.47 19 11.73 19 11.99C19 12.26 18.89 12.51 18.7 12.7C18.51 12.89 18.26 12.99 18 12.99Z" fill="#000000" fill-opacity="1.000000" fill-rule="nonzero"/>
	</g>
</svg>
