<svg width="7.668945" height="13.313965" viewBox="0 0 7.66895 13.314" fill="none" xmlns="http://www.w3.org/2000/svg" xmlns:xlink="http://www.w3.org/1999/xlink">
	<desc>
			Created with Pixso.
	</desc>
	<defs/>
	<path id="Vector" d="M7.37 5.93C7.56 6.12 7.66 6.37 7.66 6.64C7.66 6.9 7.56 7.16 7.37 7.35L1.71 13C1.62 13.1 1.51 13.18 1.39 13.23C1.27 13.28 1.14 13.31 1 13.31C0.87 13.31 0.74 13.29 0.62 13.23C0.49 13.18 0.38 13.11 0.29 13.02C0.19 12.92 0.12 12.81 0.07 12.69C0.02 12.56 -0.01 12.43 0 12.3C0 12.17 0.02 12.04 0.08 11.91C0.13 11.79 0.2 11.68 0.3 11.59L5.25 6.64L0.3 1.69C0.12 1.5 0.02 1.25 0.02 0.99C0.02 0.72 0.13 0.47 0.31 0.29C0.5 0.1 0.75 0 1.01 0C1.27 -0.01 1.53 0.09 1.71 0.28L7.37 5.93Z" fill="#000000" fill-opacity="1.000000" fill-rule="evenodd"/>
</svg>
