<svg width="20.000000" height="20.000000" viewBox="0 0 20 20" fill="none" xmlns="http://www.w3.org/2000/svg" xmlns:xlink="http://www.w3.org/1999/xlink">
	<desc>
			Created with Pixso.
	</desc>
	<defs>
		<clipPath id="clip237_1664">
			<rect id="ep:right" rx="-0.500000" width="19.000000" height="19.000000" transform="translate(20.500000 20.500000) rotate(-179.999985)" fill="white" fill-opacity="0"/>
		</clipPath>
	</defs>
	<rect id="ep:right" rx="-0.500000" width="19.000000" height="19.000000" transform="translate(20.500000 20.500000) rotate(-179.999985)" fill="#FFFFFF" fill-opacity="0"/>
	<g clip-path="url(#clip237_1664)">
		<path id="Vector" d="M5.25 10.62L16.87 10.62C17.04 10.62 17.19 10.55 17.31 10.44C17.43 10.32 17.5 10.16 17.5 10C17.5 9.83 17.43 9.67 17.31 9.55C17.19 9.44 17.04 9.37 16.87 9.37L5.25 9.37L9.81 4.81C9.93 4.7 10 4.54 10 4.37C10 4.2 9.93 4.04 9.81 3.93C9.7 3.81 9.54 3.74 9.37 3.74C9.2 3.74 9.04 3.81 8.93 3.93L3.3 9.55C3.24 9.61 3.2 9.68 3.17 9.76C3.14 9.83 3.12 9.91 3.12 10C3.12 10.08 3.14 10.16 3.17 10.23C3.2 10.31 3.24 10.38 3.3 10.44L8.93 16.06C9.04 16.18 9.2 16.25 9.37 16.25C9.54 16.25 9.7 16.18 9.81 16.06C9.93 15.95 10 15.79 10 15.62C10 15.45 9.93 15.29 9.81 15.18L5.25 10.62Z" fill="#000000" fill-opacity="1.000000" fill-rule="nonzero"/>
	</g>
</svg>
