<svg width="24" height="22" viewBox="0 0 24 22" fill="none" xmlns="http://www.w3.org/2000/svg">
<path d="M15.4919 1L18.9839 7.06655M5.01615 7.06655L8.50807 1M21.2187 7.06655H2.78131C2.51945 7.06129 2.25975 7.11458 2.02145 7.22248C1.78315 7.33038 1.57235 7.49012 1.40468 7.68987C1.237 7.88962 1.11675 8.12426 1.05281 8.37641C0.98888 8.62856 0.982912 8.89176 1.03535 9.14652L2.95591 18.6797C3.03753 19.0771 3.25695 19.4335 3.57597 19.6868C3.89499 19.9402 4.29341 20.0745 4.70187 20.0663H19.2981C19.7066 20.0745 20.105 19.9402 20.424 19.6868C20.743 19.4335 20.9625 19.0771 21.0441 18.6797L22.9647 9.14652C23.0171 8.89176 23.0111 8.62856 22.9472 8.37641C22.8833 8.12426 22.763 7.88962 22.5953 7.68987C22.4276 7.49012 22.2169 7.33038 21.9786 7.22248C21.7403 7.11458 21.4806 7.06129 21.2187 7.06655Z" stroke="black" stroke-width="2" stroke-linecap="round" stroke-linejoin="round"/>
</svg>
