<svg width="32.000000" height="32.000000" viewBox="0 0 32 32" fill="none" xmlns="http://www.w3.org/2000/svg" xmlns:xlink="http://www.w3.org/1999/xlink">
	<desc>
			Created with Pixso.
	</desc>
	<defs>
		<clipPath id="clip237_862">
			<rect id="ph:phone" rx="-0.500000" width="31.000000" height="31.000000" transform="translate(0.500000 0.500000)" fill="white" fill-opacity="0"/>
		</clipPath>
	</defs>
	<rect id="ph:phone" rx="-0.500000" width="31.000000" height="31.000000" transform="translate(0.500000 0.500000)" fill="#FFFFFF" fill-opacity="0"/>
	<g clip-path="url(#clip237_862)">
		<path id="Vector" d="M27.79 19.8L21.9 17.16L21.89 17.16C21.58 17.03 21.25 16.97 20.92 17C20.58 17.03 20.27 17.15 19.99 17.33C19.96 17.35 19.93 17.38 19.9 17.4L16.85 20C14.93 19.06 12.94 17.08 12 15.18L14.6 12.09C14.62 12.06 14.65 12.03 14.67 12C14.85 11.72 14.96 11.4 14.99 11.08C15.02 10.75 14.96 10.42 14.83 10.11L14.83 10.1L12.19 4.2C12.02 3.8 11.72 3.47 11.35 3.26C10.97 3.05 10.54 2.96 10.11 3.01C8.42 3.23 6.86 4.06 5.74 5.35C4.61 6.64 3.99 8.29 4 10C4 19.92 12.07 28 22 28C23.7 28 25.35 27.38 26.64 26.25C27.93 25.13 28.76 23.57 28.98 21.88C29.03 21.45 28.95 21.02 28.73 20.64C28.52 20.27 28.19 19.97 27.79 19.8ZM22 26C17.75 25.99 13.69 24.3 10.69 21.3C7.69 18.3 6 14.24 6 10C5.99 8.77 6.43 7.59 7.23 6.67C8.03 5.75 9.14 5.16 10.35 5C10.35 5 10.35 5.01 10.35 5.01L12.98 10.89L10.39 13.98C10.37 14.01 10.34 14.04 10.32 14.07C10.14 14.36 10.03 14.69 10 15.04C9.98 15.38 10.05 15.73 10.2 16.04C11.33 18.35 13.66 20.67 16.01 21.8C16.32 21.95 16.66 22.01 17.01 21.99C17.35 21.96 17.69 21.85 17.98 21.66C18.01 21.64 18.04 21.61 18.07 21.59L21.11 19L26.98 21.63L27 21.63C26.84 22.84 26.24 23.95 25.32 24.75C24.4 25.56 23.22 26 22 26Z" fill="#000000" fill-opacity="1.000000" fill-rule="nonzero"/>
	</g>
</svg>
