<svg width="14" height="15" viewBox="0 0 14 15" fill="none" xmlns="http://www.w3.org/2000/svg">
<path d="M10.4377 7.62024C10.2517 9.16844 9.23772 9.78706 8.79977 10.2361C8.36117 10.6865 8.43972 10.7762 8.46918 11.4367C8.4741 11.5184 8.46223 11.6003 8.4343 11.6773C8.40638 11.7542 8.36299 11.8247 8.30681 11.8842C8.25063 11.9438 8.18285 11.9912 8.10765 12.0235C8.03244 12.0559 7.95141 12.0725 7.86954 12.0724H6.12954C6.04767 12.0724 5.96665 12.0557 5.89146 12.0233C5.81627 11.991 5.74849 11.9436 5.69228 11.884C5.63607 11.8245 5.59261 11.7541 5.56458 11.6772C5.53654 11.6003 5.52452 11.5185 5.52924 11.4367C5.52924 10.7886 5.58947 10.6381 5.19931 10.2361C4.70179 9.73862 3.53132 9.0362 3.53132 7.10439C3.52833 6.62455 3.62478 6.14929 3.81458 5.70857C4.00439 5.26785 4.28344 4.87123 4.63414 4.54371C4.98483 4.21619 5.39958 3.96488 5.85223 3.8056C6.30488 3.64633 6.78561 3.58255 7.26413 3.61829C7.74265 3.65403 8.20858 3.78852 8.63254 4.01327C9.05651 4.23802 9.42932 4.54816 9.72747 4.92414C10.0256 5.30013 10.2427 5.7338 10.3649 6.19783C10.4871 6.66185 10.5119 7.14616 10.4377 7.62024Z" stroke="#2AA842" stroke-width="1.5" stroke-linecap="round" stroke-linejoin="round"/>
<path d="M5.99154 12.0364V13.0262C5.99154 13.2965 6.14211 13.5185 6.32737 13.5185H7.67132C7.85789 13.5185 8.0078 13.2959 8.0078 13.0262V12.0364M6.48906 5.1366C6.10253 5.13677 5.73188 5.29044 5.45862 5.56383C5.18536 5.83721 5.03186 6.20792 5.03186 6.59446M11.7994 7.23665H13M10.591 3.30102L11.4426 2.44935M11.2456 10.5726L12.0973 11.4237M6.99967 1V1.97081M2.57438 2.44869L3.42016 3.30102M1.91975 11.4237L2.76553 10.5726M2.19993 7.23665H1" stroke="#2AA842" stroke-width="1.5" stroke-linecap="round" stroke-linejoin="round"/>
</svg>
