<svg width="14" height="14" viewBox="0 0 14 14" fill="none" xmlns="http://www.w3.org/2000/svg">
<path d="M13.8035 8.37501C13.6546 7.81872 13.3874 7.30113 13.02 6.85763C12.6527 6.41412 12.194 6.05516 11.6752 5.80527C11.1563 5.55538 10.5897 5.42047 10.0139 5.40974C9.43814 5.39902 8.86685 5.51274 8.33908 5.74314L9.22783 2.19501C9.2657 2.0428 9.25489 1.88255 9.19693 1.7368C9.13896 1.59105 9.03677 1.46715 8.90471 1.38251C8.03055 0.828462 6.97567 0.634798 5.96171 0.842212C4.94776 1.04963 4.05366 1.64197 3.46729 2.49479C2.88092 3.3476 2.64792 4.3945 2.81725 5.4155C2.98658 6.43651 3.54506 7.35214 4.37533 7.97001L0.857833 8.97439C0.706668 9.01759 0.572903 9.10721 0.475443 9.23058C0.377983 9.35395 0.321756 9.50482 0.314709 9.66189C0.261945 10.7023 0.617178 11.7223 1.30485 12.5049C1.99252 13.2874 2.95837 13.7708 3.99696 13.8522C5.03554 13.9337 6.06492 13.6067 6.86614 12.9408C7.66736 12.275 8.17719 11.3228 8.28721 10.2869L10.9122 12.8306C11.0253 12.9395 11.1698 13.0102 11.3252 13.0326C11.4806 13.055 11.6392 13.0281 11.7785 12.9556C12.587 12.5367 13.2284 11.8543 13.5966 11.0215C13.9648 10.1886 14.0377 9.255 13.8035 8.37501ZM6.25033 8.00001C6.25033 7.85168 6.29432 7.70667 6.37673 7.58333C6.45914 7.46 6.57628 7.36387 6.71332 7.3071C6.85036 7.25034 7.00116 7.23548 7.14665 7.26442C7.29214 7.29336 7.42577 7.36479 7.53066 7.46968C7.63555 7.57457 7.70698 7.70821 7.73592 7.85369C7.76486 7.99918 7.75001 8.14998 7.69324 8.28702C7.63648 8.42407 7.54035 8.5412 7.41701 8.62361C7.29367 8.70603 7.14867 8.75001 7.00033 8.75001C6.80142 8.75001 6.61065 8.67099 6.47 8.53034C6.32935 8.38969 6.25033 8.19892 6.25033 8.00001ZM6.75033 2.25001C7.04911 2.25001 7.34546 2.30357 7.62533 2.40814L6.78783 5.76064C6.46772 5.7912 6.15787 5.89002 5.87917 6.05044C5.60048 6.21087 5.35941 6.42917 5.17221 6.69064C4.77116 6.36493 4.48088 5.92298 4.34127 5.42555C4.20166 4.92812 4.2196 4.39966 4.39261 3.91285C4.56561 3.42603 4.88519 3.00477 5.3074 2.707C5.7296 2.40923 6.23369 2.24959 6.75033 2.25001ZM5.56283 12.0063C5.21282 12.2088 4.8189 12.3234 4.41485 12.3403C4.01081 12.3571 3.60871 12.2757 3.24304 12.103C2.87737 11.9304 2.55905 11.6715 2.3154 11.3488C2.07174 11.026 1.91001 10.649 1.84408 10.25L5.16783 9.30064C5.35395 9.56312 5.59419 9.78262 5.87236 9.94435C6.15053 10.1061 6.46015 10.2063 6.78033 10.2381C6.72213 10.605 6.58258 10.9542 6.37192 11.2601C6.16125 11.5661 5.8848 11.821 5.56283 12.0063ZM12.1066 10.6588C11.9571 10.9184 11.7622 11.1489 11.531 11.3394L9.04596 8.93751C9.18009 8.64514 9.24979 8.32734 9.25033 8.00566C9.25087 7.68399 9.18224 7.36596 9.04908 7.07314C9.53168 6.88889 10.0595 6.85867 10.56 6.98662C11.0605 7.11457 11.509 7.39441 11.844 7.78767C12.1789 8.18093 12.3838 8.66829 12.4305 9.18275C12.4772 9.69721 12.3634 10.2135 12.1047 10.6606L12.1066 10.6588Z" fill="#2AA842"/>
</svg>
