<svg width="12" height="12" viewBox="0 0 12 12" fill="none" xmlns="http://www.w3.org/2000/svg">
<path d="M11.8177 4.87376L7.12302 0.176928C7.04418 0.0975902 6.94473 0.0418919 6.83591 0.0161257C6.72709 -0.00964045 6.61324 -0.00444748 6.50721 0.0311179C6.40119 0.0666833 6.30722 0.131204 6.23592 0.21739C6.16462 0.303576 6.11883 0.407992 6.10373 0.518843L5.66604 3.60208L4.46688 4.80178L4.26901 4.68781C4.13992 4.62501 3.99259 4.61064 3.85379 4.64729C3.715 4.68395 3.59396 4.76921 3.51267 4.88757C3.43138 5.00593 3.39523 5.14955 3.41079 5.29231C3.42635 5.43508 3.4926 5.56752 3.59748 5.66557L2.90797 6.36739L2.7101 6.25342C2.58133 6.19426 2.43578 6.18264 2.29925 6.22062C2.16273 6.25861 2.04407 6.34373 1.96431 6.46091C1.88455 6.57809 1.84885 6.71974 1.86354 6.86074C1.87824 7.00174 1.94237 7.13298 2.04457 7.23118L1.34306 7.92701L1.15119 7.80104C1.08276 7.76138 1.00716 7.73565 0.928751 7.72535C0.850339 7.71504 0.770663 7.72035 0.694312 7.74098C0.617962 7.76161 0.546445 7.79715 0.48388 7.84555C0.421316 7.89395 0.36894 7.95425 0.329769 8.02298C0.262055 8.14652 0.239966 8.28996 0.267374 8.42815C0.294781 8.56635 0.369937 8.69049 0.479664 8.7788L0.173878 9.08472C0.118356 9.14103 0.0754357 9.2085 0.0479664 9.28267C0.0172433 9.35479 0.00094733 9.43223 0 9.51062V11.4001C0 11.5592 0.0631699 11.7118 0.175613 11.8243C0.288056 11.9368 0.440562 12 0.599581 12H2.47627C2.55462 11.9991 2.63203 11.9827 2.70411 11.952C2.77824 11.9245 2.84569 11.8816 2.90197 11.826L3.92126 10.8003L4.11912 10.9143C4.18719 10.9542 4.26247 10.9803 4.34064 10.991C4.41881 11.0017 4.49833 10.9969 4.57464 10.9769C4.65095 10.9568 4.72255 10.9219 4.78534 10.8741C4.84813 10.8263 4.90087 10.7666 4.94054 10.6983C5.01054 10.5748 5.03449 10.4305 5.00814 10.291C4.9818 10.1515 4.90685 10.0259 4.79665 9.93651L5.49815 9.24068L5.69602 9.35466C5.78563 9.40546 5.88681 9.43232 5.98981 9.43264C6.10458 9.42229 6.21394 9.37907 6.3048 9.30816C6.39565 9.23724 6.46416 9.14163 6.50212 9.03278C6.54007 8.92393 6.54587 8.80643 6.51881 8.69437C6.49176 8.5823 6.43299 8.48041 6.34956 8.40089L7.05107 7.70506L7.24893 7.81904C7.33854 7.86984 7.43972 7.8967 7.54272 7.89702C7.66517 7.89483 7.784 7.85519 7.88325 7.78342C7.9825 7.71165 8.05741 7.61119 8.09789 7.49556C8.13837 7.37994 8.1425 7.25468 8.10971 7.13664C8.07691 7.01859 8.00878 6.91343 7.91446 6.83528L8.38813 6.3614L11.476 5.9235C11.5869 5.90773 11.6913 5.86114 11.7771 5.78904C11.863 5.71694 11.9269 5.62221 11.9616 5.51561C12.0027 5.40623 12.011 5.28722 11.9855 5.17319C11.9599 5.05917 11.9016 4.9551 11.8177 4.87376ZM2.23044 10.8003H1.19916V9.76855L1.54092 9.42664L2.84801 10.2004L2.23044 10.8003ZM3.7234 9.30067L2.39832 8.55085L3.08184 7.86702L4.38293 8.61684L3.7234 9.30067ZM5.2883 7.74105L3.98122 6.98524L4.67073 6.30141L5.99581 7.05123L5.2883 7.74105ZM6.85321 6.17544L5.54612 5.40163L6.22964 4.7178L7.26092 5.74955L6.85321 6.17544ZM8.32218 5.1317L6.8652 3.67406L7.12302 1.87451L10.1209 4.87376L8.32218 5.1317Z" fill="#2AA842"/>
</svg>
