<svg width="38.000000" height="38.000000" viewBox="0 0 38 38" fill="none" xmlns="http://www.w3.org/2000/svg" xmlns:xlink="http://www.w3.org/1999/xlink">
	<desc>
			Created with Pixso.
	</desc>
	<defs>
		<clipPath id="clip237_845">
			<rect id="codicon:location" rx="-0.500000" width="37.000000" height="37.000000" transform="translate(0.500000 0.500000)" fill="white" fill-opacity="0"/>
		</clipPath>
	</defs>
	<rect id="codicon:location" rx="-0.500000" width="37.000000" height="37.000000" transform="translate(0.500000 0.500000)" fill="#FFFFFF" fill-opacity="0"/>
	<g clip-path="url(#clip237_845)">
		<path id="Vector" d="M25.72 6.38C23.95 4.61 21.55 3.59 19.04 3.56L18.95 3.56C16.44 3.59 14.04 4.6 12.27 6.38C10.49 8.15 9.48 10.55 9.45 13.06C9.42 14.84 9.92 16.59 10.89 18.09L18.36 33.25L19.63 33.25L27.1 18.09C28.07 16.59 28.58 14.84 28.54 13.06C28.51 10.55 27.49 8.15 25.72 6.38ZM18.82 5.93L19.01 5.96L19.19 5.93C21.05 6.01 22.82 6.81 24.12 8.15C25.42 9.49 26.15 11.28 26.17 13.15C26.19 14.47 25.8 15.77 25.06 16.87L25.02 16.95L24.98 17.03L19 29.16L13.02 17.05L12.98 16.95L12.93 16.87C12.19 15.77 11.8 14.47 11.82 13.15C11.84 11.28 12.58 9.49 13.88 8.15C15.18 6.8 16.95 6.01 18.81 5.93L18.82 5.93ZM20.27 11.08C20.01 10.91 19.72 10.79 19.41 10.73C19.11 10.67 18.79 10.67 18.49 10.73C18.18 10.79 17.89 10.91 17.63 11.08C17.37 11.26 17.15 11.48 16.98 11.74C16.8 12 16.68 12.29 16.62 12.59C16.56 12.9 16.56 13.22 16.62 13.52C16.68 13.83 16.8 14.12 16.97 14.38C17.15 14.64 17.37 14.86 17.63 15.03C18.15 15.38 18.79 15.51 19.41 15.39C20.03 15.27 20.57 14.9 20.92 14.38C21.28 13.86 21.4 13.21 21.28 12.6C21.16 11.98 20.79 11.43 20.27 11.08ZM16.31 9.11C16.83 8.74 17.42 8.49 18.03 8.35C18.65 8.22 19.29 8.21 19.92 8.32C20.54 8.44 21.13 8.68 21.66 9.03C22.19 9.38 22.64 9.83 22.99 10.36C23.35 10.88 23.59 11.48 23.71 12.1C23.83 12.72 23.82 13.36 23.69 13.98C23.56 14.6 23.3 15.19 22.94 15.71C22.58 16.23 22.12 16.67 21.58 17.01C20.54 17.67 19.27 17.9 18.06 17.64C16.84 17.38 15.78 16.66 15.09 15.63C14.4 14.6 14.15 13.34 14.37 12.12C14.6 10.9 15.3 9.82 16.31 9.11Z" fill="#000000" fill-opacity="1.000000" fill-rule="evenodd"/>
	</g>
</svg>
