<svg width="8" height="14" viewBox="0 0 8 14" fill="none" xmlns="http://www.w3.org/2000/svg">
<path d="M8 7.875H7.2V12.6875C7.2 12.8698 7.16875 13.0407 7.10625 13.2002C7.04375 13.3597 6.95833 13.4987 6.85 13.6172C6.74167 13.7357 6.61458 13.8291 6.46875 13.8975C6.32292 13.9658 6.16667 14 6 14C5.83333 14 5.67708 13.9658 5.53125 13.8975C5.38542 13.8291 5.25833 13.7357 5.15 13.6172C5.04167 13.4987 4.95625 13.3597 4.89375 13.2002C4.83125 13.0407 4.8 12.8698 4.8 12.6875V7.875H4V7H5.6V3.24707L4.8 2.37207V0H7.2V2.37207L6.4 3.24707V7H8V7.875ZM5.6 2.00293L6 2.44727L6.4 2.00293V0.875H5.6V2.00293ZM6.4 7.875H5.6V12.6875C5.6 12.806 5.63958 12.9085 5.71875 12.9951C5.79792 13.0817 5.89167 13.125 6 13.125C6.10833 13.125 6.20208 13.0817 6.28125 12.9951C6.36042 12.9085 6.4 12.806 6.4 12.6875V7.875ZM2 0C2.275 0 2.53333 0.0569661 2.775 0.170898C3.01667 0.284831 3.22708 0.442057 3.40625 0.642578C3.58542 0.843099 3.72917 1.07552 3.8375 1.33984C3.94583 1.60417 4 1.88672 4 2.1875C4 2.5293 3.92917 2.85286 3.7875 3.1582C3.64583 3.46354 3.45 3.72103 3.2 3.93066V12.6875C3.2 12.8698 3.16875 13.0407 3.10625 13.2002C3.04375 13.3597 2.95833 13.4987 2.85 13.6172C2.74167 13.7357 2.61458 13.8291 2.46875 13.8975C2.32292 13.9658 2.16667 14 2 14C1.83333 14 1.67708 13.9658 1.53125 13.8975C1.38542 13.8291 1.25833 13.7357 1.15 13.6172C1.04167 13.4987 0.95625 13.3597 0.89375 13.2002C0.83125 13.0407 0.8 12.8698 0.8 12.6875V3.93066C0.55 3.72559 0.354167 3.47038 0.2125 3.16504C0.0708333 2.8597 0 2.53385 0 2.1875C0 1.88672 0.0520833 1.60417 0.15625 1.33984C0.260417 1.07552 0.402083 0.845378 0.58125 0.649414C0.760417 0.453451 0.972917 0.296224 1.21875 0.177734C1.46458 0.0592448 1.725 0 2 0ZM2.4 3.44531C2.51667 3.3724 2.62292 3.29492 2.71875 3.21289C2.81458 3.13086 2.9 3.04199 2.975 2.94629C3.05 2.85059 3.10417 2.73893 3.1375 2.61133C3.17083 2.48372 3.19167 2.34245 3.2 2.1875C3.2 2.05078 3.18125 1.91862 3.14375 1.79102C3.10625 1.66341 3.05208 1.54492 2.98125 1.43555C2.91042 1.32617 2.825 1.23047 2.725 1.14844C2.625 1.06641 2.51667 1.0026 2.4 0.957031V2.1875L2 2.625L1.6 2.1875V0.957031C1.47917 1.0026 1.37083 1.06641 1.275 1.14844C1.17917 1.23047 1.09583 1.32617 1.025 1.43555C0.954167 1.54492 0.9 1.66341 0.8625 1.79102C0.825 1.91862 0.804167 2.05078 0.8 2.1875C0.8 2.34701 0.81875 2.48828 0.85625 2.61133C0.89375 2.73438 0.95 2.84375 1.025 2.93945C1.1 3.03516 1.18333 3.1263 1.275 3.21289C1.36667 3.29948 1.475 3.37695 1.6 3.44531V12.6875C1.6 12.806 1.63958 12.9085 1.71875 12.9951C1.79792 13.0817 1.89167 13.125 2 13.125C2.10833 13.125 2.20208 13.0817 2.28125 12.9951C2.36042 12.9085 2.4 12.806 2.4 12.6875V3.44531Z" fill="#2AA842"/>
</svg>
