<svg width="12" height="15" viewBox="0 0 12 15" fill="none" xmlns="http://www.w3.org/2000/svg">
<path d="M11.6317 4.34252L9.17332 1.88332L7.36571 3.68668L6.1629 2.48898L8.28865 0.358971C8.41511 0.232509 8.55462 0.141206 8.70717 0.0850641C8.85971 0.0283546 9.0151 0 9.17332 0C9.33494 0 9.49373 0.0283546 9.64968 0.0850641C9.8062 0.141206 9.94627 0.232509 10.0699 0.358971L11.3867 1.67576C11.5982 1.88389 11.7533 2.11753 11.852 2.37669C11.9507 2.63585 12 2.90664 12 3.18905C12 3.38413 11.9697 3.58035 11.909 3.7777C11.8489 3.97505 11.7564 4.16332 11.6317 4.34252ZM1.95903 7.8948C1.78039 7.7156 1.69108 7.5123 1.69108 7.28489C1.69108 7.05749 1.78039 6.85447 1.95903 6.67583L3.74878 4.88098L4.95073 6.08379L3.14142 7.8948C2.96562 8.07344 2.76941 8.16276 2.55278 8.16276C2.33614 8.16276 2.13766 8.07344 1.95903 7.8948ZM0.35812 13.7362C0.235061 13.6097 0.144609 13.4654 0.0867652 13.3032C0.0289216 13.1416 0 12.9743 0 12.8013C0 12.6295 0.0283546 12.465 0.0850641 12.3079C0.141774 12.1508 0.232792 12.0096 0.35812 11.8843L6.16375 6.08294L3.16949 3.08358C2.99029 2.90778 2.90324 2.71156 2.90834 2.49493C2.91345 2.2783 3.00588 2.08067 3.18565 1.90203C3.36088 1.7234 3.56022 1.63692 3.78365 1.64259C4.00709 1.64769 4.20841 1.73984 4.38761 1.91905L7.36656 4.89714L8.57872 3.68498L10.5182 5.63465C10.6123 5.72879 10.6594 5.82661 10.6594 5.92812C10.6594 6.02963 10.6126 6.12717 10.519 6.22074C10.4249 6.30354 10.3191 6.33955 10.2017 6.32877C10.0844 6.318 9.9457 6.24399 9.78578 6.10675L2.17254 13.72C2.04608 13.8465 1.90714 13.9403 1.75572 14.0016C1.60488 14.0634 1.44496 14.0943 1.27596 14.0943C1.10697 14.0943 0.943361 14.0654 0.785142 14.0075C0.626923 13.9497 0.484582 13.8598 0.35812 13.7362Z" fill="#2AA842"/>
</svg>
