<svg width="19" height="18" viewBox="0 0 19 18" fill="none" xmlns="http://www.w3.org/2000/svg">
<path d="M13.138 11H12.3159L12.0245 10.73C13.0796 9.55402 13.6595 8.0527 13.6583 6.5C13.6583 5.21442 13.2616 3.95772 12.5184 2.8888C11.7751 1.81988 10.7187 0.986756 9.48267 0.494786C8.24667 0.00281635 6.88661 -0.125905 5.57448 0.124899C4.26235 0.375703 3.05708 0.994767 2.11108 1.90381C1.16509 2.81285 0.520858 3.97104 0.259859 5.23192C-0.00114062 6.49279 0.132814 7.79973 0.644782 8.98744C1.15675 10.1752 2.02374 11.1903 3.13611 11.9046C4.24848 12.6188 5.55628 13 6.89411 13C8.56956 13 10.1097 12.41 11.2961 11.43L11.577 11.71V12.5L16.7803 17.49L18.3309 16L13.138 11ZM6.89411 11C4.30289 11 2.21119 8.99 2.21119 6.5C2.21119 4.01 4.30289 2 6.89411 2C9.48533 2 11.577 4.01 11.577 6.5C11.577 8.99 9.48533 11 6.89411 11Z" fill="white"/>
</svg>
