<svg width="13.000000" height="13.000000" viewBox="0 0 13 13" fill="none" xmlns="http://www.w3.org/2000/svg" xmlns:xlink="http://www.w3.org/1999/xlink">
	<desc>
			Created with Pixso.
	</desc>
	<defs/>
	<path id="Vector" d="M4.25 8.75L8.75 4.25M5.75 2L6.09 1.59C6.8 0.89 7.75 0.5 8.75 0.5C9.74 0.5 10.69 0.89 11.4 1.59C12.1 2.3 12.5 3.25 12.5 4.25C12.49 5.24 12.1 6.19 11.4 6.9L11 7.25M7.25 11L6.95 11.4C6.24 12.1 5.28 12.5 4.28 12.5C3.27 12.5 2.31 12.1 1.6 11.4C1.25 11.05 0.97 10.64 0.78 10.18C0.59 9.73 0.5 9.24 0.5 8.75C0.5 8.25 0.59 7.76 0.78 7.31C0.97 6.85 1.25 6.44 1.6 6.09L2 5.75" stroke="#FFFFFF" stroke-opacity="1.000000" stroke-width="1.000000" stroke-linejoin="round"/>
</svg>
