<svg width="24.000000" height="24.000000" viewBox="0 0 24 24" fill="none" xmlns="http://www.w3.org/2000/svg" xmlns:xlink="http://www.w3.org/1999/xlink">
	<desc>
			Created with Pixso.
	</desc>
	<defs>
		<clipPath id="clip246_1065">
			<rect id="basil:share-outline" rx="-0.500000" width="23.000000" height="23.000000" transform="translate(0.500000 0.500000)" fill="white" fill-opacity="0"/>
		</clipPath>
	</defs>
	<rect id="basil:share-outline" rx="-0.500000" width="23.000000" height="23.000000" transform="translate(0.500000 0.500000)" fill="#FFFFFF" fill-opacity="0"/>
	<g clip-path="url(#clip246_1065)">
		<path id="Vector" d="M14.25 5.5C14.25 4.74 14.51 4 15 3.42C15.48 2.83 16.16 2.44 16.9 2.3C17.65 2.16 18.42 2.29 19.08 2.66C19.75 3.03 20.26 3.62 20.53 4.33C20.8 5.04 20.82 5.82 20.57 6.54C20.33 7.26 19.84 7.87 19.19 8.27C18.54 8.66 17.78 8.82 17.03 8.71C16.28 8.6 15.59 8.23 15.08 7.67L12.36 9.15L9.32 10.89C9.75 11.64 9.86 12.52 9.63 13.35L15.08 16.32C15.61 15.73 16.34 15.35 17.13 15.27C17.93 15.18 18.72 15.38 19.37 15.84C20.02 16.31 20.48 16.99 20.66 17.76C20.84 18.54 20.73 19.36 20.35 20.05C19.96 20.75 19.34 21.29 18.59 21.56C17.84 21.82 17.02 21.81 16.28 21.51C15.54 21.21 14.94 20.65 14.58 19.94C14.23 19.23 14.15 18.41 14.36 17.64L8.91 14.67C8.5 15.13 7.96 15.46 7.36 15.63C6.76 15.79 6.13 15.78 5.53 15.6C4.94 15.42 4.41 15.07 4.01 14.59C3.61 14.12 3.36 13.54 3.27 12.92C3.19 12.31 3.29 11.68 3.55 11.12C3.81 10.56 4.23 10.08 4.76 9.75C5.28 9.42 5.89 9.24 6.51 9.25C7.13 9.25 7.74 9.43 8.26 9.77L11.63 7.84L14.36 6.35C14.28 6.07 14.24 5.78 14.25 5.5ZM17.5 3.75C17.03 3.75 16.59 3.93 16.26 4.26C15.93 4.59 15.75 5.03 15.75 5.5C15.75 5.96 15.93 6.4 16.26 6.73C16.59 7.06 17.03 7.25 17.5 7.25C17.96 7.25 18.4 7.06 18.73 6.73C19.06 6.4 19.25 5.96 19.25 5.5C19.25 5.03 19.06 4.59 18.73 4.26C18.4 3.93 17.96 3.75 17.5 3.75ZM6.5 10.75C6.03 10.75 5.59 10.93 5.26 11.26C4.93 11.59 4.75 12.03 4.75 12.5C4.75 12.96 4.93 13.4 5.26 13.73C5.59 14.06 6.03 14.25 6.5 14.25C6.96 14.25 7.4 14.06 7.73 13.73C8.06 13.4 8.25 12.96 8.25 12.5C8.25 12.03 8.06 11.59 7.73 11.26C7.4 10.93 6.96 10.75 6.5 10.75ZM15.75 18.5C15.75 18.03 15.93 17.59 16.26 17.26C16.59 16.93 17.03 16.75 17.5 16.75C17.96 16.75 18.4 16.93 18.73 17.26C19.06 17.59 19.25 18.03 19.25 18.5C19.25 18.96 19.06 19.4 18.73 19.73C18.4 20.06 17.96 20.25 17.5 20.25C17.03 20.25 16.59 20.06 16.26 19.73C15.93 19.4 15.75 18.96 15.75 18.5Z" fill="#FFFFFF" fill-opacity="1.000000" fill-rule="evenodd"/>
	</g>
</svg>
