<svg width="16.000000" height="16.000000" viewBox="0 0 16 16" fill="none" xmlns="http://www.w3.org/2000/svg" xmlns:xlink="http://www.w3.org/1999/xlink">

	<defs>
		<clipPath id="clip246_1075">
			<rect id="ic:outline-whatsapp" rx="-0.500000" width="15.000000" height="15.000000" transform="translate(0.500000 0.500000)" fill="white" fill-opacity="0"/>
		</clipPath>
	</defs>
	<rect id="ic:outline-whatsapp" rx="-0.500000" width="15.000000" height="15.000000" transform="translate(0.500000 0.500000)" fill="#FFFFFF" fill-opacity="0"/>
	<g clip-path="url(#clip246_1075)">
		<path id="Vector" d="M12.7 3.27C12.08 2.65 11.36 2.16 10.55 1.83C9.75 1.5 8.89 1.33 8.02 1.33C4.38 1.33 1.41 4.3 1.41 7.94C1.41 9.1 1.72 10.24 2.3 11.24L1.36 14.66L4.86 13.74C5.83 14.27 6.91 14.55 8.02 14.55C11.66 14.55 14.63 11.58 14.63 7.94C14.63 6.18 13.94 4.52 12.7 3.27ZM8.02 13.43C7.04 13.43 6.07 13.16 5.22 12.66L5.02 12.54L2.94 13.09L3.5 11.06L3.36 10.86C2.81 9.98 2.52 8.97 2.52 7.94C2.52 4.91 4.99 2.44 8.02 2.44C9.48 2.44 10.86 3.02 11.9 4.06C12.41 4.56 12.81 5.17 13.09 5.84C13.36 6.5 13.5 7.22 13.5 7.94C13.52 10.97 11.05 13.43 8.02 13.43ZM11.04 9.32C10.87 9.24 10.06 8.84 9.91 8.78C9.76 8.73 9.65 8.7 9.54 8.86C9.42 9.03 9.11 9.4 9.02 9.51C8.92 9.62 8.82 9.64 8.65 9.55C8.49 9.47 7.95 9.29 7.33 8.73C6.84 8.29 6.51 7.75 6.41 7.58C6.32 7.42 6.4 7.33 6.48 7.24C6.56 7.17 6.65 7.05 6.73 6.95C6.81 6.86 6.84 6.79 6.9 6.68C6.95 6.57 6.92 6.47 6.88 6.4C6.84 6.32 6.51 5.5 6.38 5.17C6.24 4.85 6.1 4.89 6 4.88L5.68 4.88C5.57 4.88 5.4 4.92 5.24 5.09C5.1 5.26 4.67 5.66 4.67 6.47C4.67 7.28 5.26 8.07 5.34 8.18C5.42 8.29 6.51 9.95 8.16 10.67C8.56 10.84 8.86 10.94 9.1 11.02C9.5 11.14 9.86 11.12 10.14 11.08C10.46 11.04 11.12 10.68 11.26 10.3C11.4 9.91 11.4 9.58 11.35 9.51C11.3 9.44 11.2 9.4 11.04 9.32Z" fill="#FFFFFF" fill-opacity="1.000000" fill-rule="nonzero"/>
	</g>
</svg>
